<svg width="25" height="24" viewBox="0 0 25 24" fill="none" xmlns="http://www.w3.org/2000/svg">
<path d="M24.2068 22.2938L18.2378 16.3248C19.8644 14.3354 20.6642 11.7969 20.4716 9.23432C20.2791 6.67179 19.109 4.28129 17.2034 2.55728C15.2977 0.833269 12.8024 -0.0923492 10.2334 -0.0281174C7.66447 0.0361144 5.21849 1.08528 3.4014 2.90237C1.58431 4.71946 0.535138 7.16545 0.470906 9.7344C0.406674 12.3034 1.33229 14.7987 3.0563 16.7043C4.78031 18.61 7.17081 19.7801 9.73334 19.9726C12.2959 20.1651 14.8344 19.3654 16.8238 17.7388L22.7928 23.7078C22.9814 23.8899 23.234 23.9907 23.4962 23.9884C23.7584 23.9862 24.0092 23.881 24.1946 23.6956C24.38 23.5102 24.4852 23.2594 24.4875 22.9972C24.4897 22.735 24.3889 22.4824 24.2068 22.2938ZM10.4998 18.0008C8.91753 18.0008 7.37081 17.5316 6.05522 16.6525C4.73963 15.7735 3.71425 14.524 3.10875 13.0622C2.50324 11.6004 2.34482 9.99189 2.6535 8.44004C2.96218 6.88819 3.72411 5.46272 4.84293 4.3439C5.96175 3.22508 7.38721 2.46316 8.93906 2.15448C10.4909 1.84579 12.0994 2.00422 13.5613 2.60972C15.0231 3.21522 16.2725 4.2406 17.1515 5.5562C18.0306 6.87179 18.4998 8.41851 18.4998 10.0008C18.4974 12.1218 17.6538 14.1552 16.154 15.655C14.6542 17.1548 12.6208 17.9984 10.4998 18.0008Z" fill="white"/>
</svg>
